<svg xmlns="http://www.w3.org/2000/svg" width="96" height="96" viewBox="0 0 96 96">
  <g id="address" transform="translate(-16357 -374)">
    <g id="Page-1" transform="translate(16357 374)">
      <g id="icon">
        <circle id="Oval" cx="48" cy="48" r="48" fill="#695ef0"/>
      </g>
    </g>
    <g id="placeholder_1_" data-name="placeholder (1)" transform="translate(16388 399)">
      <g id="Group_2196" data-name="Group 2196" transform="translate(0)">
        <g id="Group_2195" data-name="Group 2195">
          <path id="Path_29" data-name="Path 29" d="M81.085,0A17.1,17.1,0,0,0,64,17.085c0,11.843,15.422,27.4,16.077,28.06a1.43,1.43,0,0,0,2.016,0c.655-.658,16.077-16.217,16.077-28.06A17.1,17.1,0,0,0,81.085,0Zm0,42.078c-3.4-3.639-14.238-15.946-14.238-24.993a14.238,14.238,0,1,1,28.475,0C95.323,26.123,84.485,38.439,81.085,42.078Z" transform="translate(-64)" fill="#fff"/>
        </g>
      </g>
      <g id="Group_2198" data-name="Group 2198" transform="translate(8.543 8.543)">
        <g id="Group_2197" data-name="Group 2197">
          <path id="Path_30" data-name="Path 30" d="M168.543,96a8.543,8.543,0,1,0,8.543,8.543A8.553,8.553,0,0,0,168.543,96Zm0,14.238a5.7,5.7,0,1,1,5.7-5.7A5.7,5.7,0,0,1,168.543,110.238Z" transform="translate(-160 -96)" fill="#fff"/>
        </g>
      </g>
    </g>
  </g>
</svg>
