<svg xmlns="http://www.w3.org/2000/svg" width="96" height="96" viewBox="0 0 96 96">
  <g id="contact" transform="translate(-16357 -232)">
    <g id="Page-1" transform="translate(16357 232)">
      <g id="icon">
        <circle id="Oval" cx="48" cy="48" r="48" fill="#34d789"/>
      </g>
    </g>
    <g id="smartphone_1_" data-name="smartphone (1)" transform="translate(16387 257)">
      <g id="Group_2199" data-name="Group 2199" transform="translate(0)">
        <path id="Path_31" data-name="Path 31" d="M142.186,0H120.509c-3.685,0-6.817,2.19-6.817,4.876V41.9c0,2.686,3.065,4.87,6.751,4.87l21.713-.017c3.685,0,6.7-2.185,6.7-4.871l.032-37.01C148.886,2.178,145.887,0,142.186,0Zm-13.97,2.923h6.289c.553,0,1,.327,1,.731s-.45.731-1,.731h-6.289c-.554,0-1-.327-1-.731S127.662,2.923,128.216,2.923Zm-3.779.233a1.334,1.334,0,0,1,1.419,0,.658.658,0,0,1,.3.519.658.658,0,0,1-.3.515,1.227,1.227,0,0,1-.707.215,1.246,1.246,0,0,1-.712-.215.653.653,0,0,1-.291-.515A.653.653,0,0,1,124.437,3.156Zm6.721,42.168c-1.654,0-3-.981-3-2.187s1.346-2.187,3-2.187,3,.981,3,2.187S132.812,45.323,131.158,45.323Zm14.617-5.86H117.2V6.943h28.574v32.52Z" transform="translate(-113.692)" fill="#fff"/>
      </g>
    </g>
  </g>
</svg>
