<svg xmlns="http://www.w3.org/2000/svg" width="96" height="96" viewBox="0 0 96 96">
  <g id="email" transform="translate(-16357 -76)">
    <g id="Page-1" transform="translate(16357 76)">
      <g id="icon">
        <circle id="Oval" cx="48" cy="48" r="48" fill="#f587ba"/>
      </g>
    </g>
    <g id="email_4_" data-name="email (4)" transform="translate(16383.146 107.443)">
      <g id="Group_2194" data-name="Group 2194" transform="translate(0 0)">
        <path id="Path_28" data-name="Path 28" d="M40.428,61H3.9A3.9,3.9,0,0,0,0,64.9V90.867a3.9,3.9,0,0,0,3.9,3.9H40.428a3.9,3.9,0,0,0,3.9-3.9V64.9A3.9,3.9,0,0,0,40.428,61Zm-.538,2.6L22.245,81.243,4.446,63.6ZM2.6,90.329V65.421L15.1,77.822Zm1.836,1.836L16.949,79.65,21.334,84a1.3,1.3,0,0,0,1.832,0l4.276-4.276L39.891,92.166Zm37.293-1.836L29.279,77.881,41.727,65.433Z" transform="translate(0 -61)" fill="#fff"/>
      </g>
    </g>
  </g>
</svg>
