<svg id="email_4_" data-name="email (4)" xmlns="http://www.w3.org/2000/svg" width="37.547" height="28.6" viewBox="0 0 37.547 28.6">
  <g id="Group_2194" data-name="Group 2194" transform="translate(0 0)">
    <path id="Path_28" data-name="Path 28" d="M34.248,61H3.3A3.306,3.306,0,0,0,0,64.3v22a3.305,3.305,0,0,0,3.3,3.3H34.248a3.305,3.305,0,0,0,3.3-3.3v-22A3.305,3.305,0,0,0,34.248,61Zm-.456,2.2L18.844,78.148,3.766,63.2ZM2.2,85.845v-21.1l10.6,10.5ZM3.756,87.4l10.6-10.6,3.715,3.683a1.1,1.1,0,0,0,1.552,0l3.622-3.622L33.792,87.4Zm31.592-1.556L24.8,75.3,35.348,64.756Z" transform="translate(0 -61)" fill="#fff"/>
  </g>
</svg>
