<svg xmlns="http://www.w3.org/2000/svg" width="147.843" height="147.843" viewBox="0 0 147.843 147.843">
  <g id="Group_2172" data-name="Group 2172" transform="translate(0)">
    <g id="mission" transform="translate(44.592 44.592)">
      <path id="Path_13" data-name="Path 13" d="M45.28,49.305H1.224A1.225,1.225,0,0,1,.149,47.494L22.177,7.109a1.274,1.274,0,0,1,2.149,0L46.355,47.494a1.225,1.225,0,0,1-1.074,1.811Zm-42-2.448H43.217L23.252,10.251Z" transform="translate(0 9.437)" fill="#ff4040"/>
      <path id="Path_14" data-name="Path 14" d="M35.555,39.924H23.317a1.224,1.224,0,0,1,0-2.448H33.484L22.164,16.892,17.5,26.545a1.224,1.224,0,0,1-2.2-1.067l5.7-11.788a1.227,1.227,0,0,1,1.07-.69,1.288,1.288,0,0,1,1.1.634L36.629,38.11a1.225,1.225,0,0,1-1.074,1.814Z" transform="translate(21.963 18.819)" fill="#ff4040"/>
      <path id="Path_15" data-name="Path 15" d="M10.224,18.357A1.224,1.224,0,0,1,9,17.133V1.224A1.224,1.224,0,0,1,10.224,0H24.909a1.225,1.225,0,0,1,.866,2.09L21.745,6.119l4.029,4.029a1.225,1.225,0,0,1-.864,2.09H11.448v4.9a1.224,1.224,0,0,1-1.224,1.224ZM11.448,9.79H21.955l-2.8-2.8a1.225,1.225,0,0,1,0-1.73l2.8-2.807H11.448Z" transform="translate(13.028)" fill="#ff4040"/>
      <path id="Path_16" data-name="Path 16" d="M18.5,19.327c-.029,0-.056,0-.088,0a1.217,1.217,0,0,1-.891-.487l-2.692-3.588-2.692,3.588a1.23,1.23,0,0,1-.891.487,1.183,1.183,0,0,1-.952-.355L6.179,14.858a1.224,1.224,0,1,1,1.73-1.73l3.113,3.113,2.825-3.767a1.267,1.267,0,0,1,1.958,0L18.63,16.24l3.113-3.113a1.224,1.224,0,1,1,1.73,1.73L19.362,18.97a1.221,1.221,0,0,1-.864.357Z" transform="translate(8.426 17.387)" fill="#ff4040"/>
    </g>
    <g id="Ellipse_3" data-name="Ellipse 3" transform="translate(37.868 147.843) rotate(-109)" fill="none" stroke="#ff4040" stroke-width="7">
      <circle cx="58.156" cy="58.156" r="58.156" stroke="none"/>
      <circle cx="58.156" cy="58.156" r="54.656" fill="none"/>
    </g>
  </g>
</svg>
