<svg xmlns="http://www.w3.org/2000/svg" width="147.843" height="147.843" viewBox="0 0 147.843 147.843">
  <g id="Group_2171" data-name="Group 2171" transform="translate(0)">
    <g id="Ellipse_2" data-name="Ellipse 2" transform="translate(37.868 147.843) rotate(-109)" fill="none" stroke="#ff4040" stroke-width="7">
      <circle cx="58.156" cy="58.156" r="58.156" stroke="none"/>
      <circle cx="58.156" cy="58.156" r="54.656" fill="none"/>
    </g>
    <g id="target_3_" data-name="target (3)" transform="translate(44.436 44.436)">
      <path id="Path_17" data-name="Path 17" d="M51.232,14.236a2.087,2.087,0,0,0,1.475-.611l5.779-5.779a1.271,1.271,0,0,0-.819-2.166l-3.075-.193L56.6,3.481a.862.862,0,1,0-1.219-1.219L53.372,4.268l-.193-3.075A1.271,1.271,0,0,0,51.014.374L45.235,6.153a2.087,2.087,0,0,0-.607,1.606l.2,3.165A27.207,27.207,0,0,0,7.076,49.957.862.862,0,0,0,8.352,48.8,25.492,25.492,0,0,1,44.617,13.024l-3.934,3.934A19.95,19.95,0,0,0,9.451,40.781h0a19.963,19.963,0,0,0,37.3-5.067.862.862,0,1,0-1.688-.35,18.238,18.238,0,0,1-34.08,4.626h0a18,18,0,0,1-2.018-8.335,18.22,18.22,0,0,1,30.5-13.48l-3.9,3.9a12.737,12.737,0,1,0,1.219,1.219l3.9-3.9A18.16,18.16,0,0,1,45.442,31.55a.862.862,0,0,0,.862.857h.005a.862.862,0,0,0,.857-.867A19.88,19.88,0,0,0,41.9,18.176l3.934-3.934A25.493,25.493,0,0,1,11.179,51.466a.862.862,0,1,0-1.085,1.34,27.2,27.2,0,0,0,44.314-21.15,26.983,26.983,0,0,0-5.35-16.2q-.544-.732-1.13-1.421c3.38.212,3.2.2,3.3.2ZM38.2,31.656A11.011,11.011,0,1,1,34.343,23.3l-3.923,3.923a5.489,5.489,0,1,0,1.219,1.219l3.923-3.923A10.95,10.95,0,0,1,38.2,31.656Zm-11.607.61a.862.862,0,0,0,1.219,0L30.4,29.681a3.761,3.761,0,1,1-1.219-1.219l-2.585,2.585A.862.862,0,0,0,26.594,32.266ZM46.349,7.65a.361.361,0,0,1,.105-.278l5.067-5.067.225,3.589-5.182,5.182ZM47.784,12.3l5.182-5.182,3.589.225-5.067,5.067a.36.36,0,0,1-.278.105Z" transform="translate(0 -0.002)" fill="#ff4040"/>
    </g>
  </g>
</svg>
